<svg width="10" height="10" viewBox="0 0 10 10" fill="none" xmlns="http://www.w3.org/2000/svg">
    <path d="M9.25 4.41678H5.5V0.62447C5.5 0.346367 5.275 0.118828 5 0.118828C4.725 0.118828 4.5 0.346367 4.5 0.62447V4.41678H0.75C0.475 4.41678 0.25 4.64432 0.25 4.92243C0.25 5.20053 0.475 5.42807 0.75 5.42807H4.5V9.22038C4.5 9.49848 4.725 9.72602 5 9.72602C5.275 9.72602 5.5 9.49848 5.5 9.22038V5.42807H9.25C9.525 5.42807 9.75 5.20053 9.75 4.92243C9.75 4.64432 9.525 4.41678 9.25 4.41678V4.41678Z" fill="white"/>
</svg>